<?xml version="1.0" encoding="UTF-8" standalone="no"?><!DOCTYPE svg PUBLIC "-//W3C//DTD SVG 1.1//EN" "http://www.w3.org/Graphics/SVG/1.1/DTD/svg11.dtd"><svg width="100%" height="100%" viewBox="0 0 2190 2340" version="1.1" xmlns="http://www.w3.org/2000/svg" xmlns:xlink="http://www.w3.org/1999/xlink" xml:space="preserve" xmlns:serif="http://www.serif.com/" style="fill-rule:evenodd;clip-rule:evenodd;stroke-linecap:round;stroke-linejoin:round;stroke-miterlimit:1.5;"><g><path d="M2088.25,751.453c0,-230.029 -186.754,-416.784 -416.784,-416.784l-982.585,0c-230.029,0 -416.784,186.755 -416.784,416.784l-0,833.568c-0,230.029 186.755,416.784 416.784,416.784l982.585,-0c230.03,-0 416.784,-186.755 416.784,-416.784l0,-833.568Z" style="fill:none;stroke:#312e51;stroke-width:202.01px;"/><path d="M583.343,1709.29l534.774,-1263.27c-0,-0.001 748.028,1824.73 748.028,1824.73c16.584,40.455 62.892,59.835 103.347,43.251c40.455,-16.584 59.836,-62.893 43.252,-103.348l-820.153,-2000.67c-12.131,-29.592 -40.866,-48.988 -72.847,-49.17c-31.982,-0.182 -60.936,18.884 -73.404,48.336l-608.901,1438.37c-17.044,40.263 1.806,86.79 42.069,103.834c40.264,17.045 86.79,-1.806 103.835,-42.069Z" style="stroke:#fff;stroke-width:39.61px;stroke-linecap:butt;stroke-miterlimit:2;"/><path d="M512.724,768.312l605.393,903.202l917.124,-1582.39" style="fill:none;stroke:#30aa2e;stroke-width:178.24px;"/><g><path d="M96.969,1885.13l0,41.284l-42.251,-0l0,-41.284l42.251,0Zm4.849,74.007l-0,133.744l42.597,0c8.542,0 14.632,1.808 18.268,5.422c3.637,3.615 5.455,8.339 5.455,14.174c-0,5.707 -1.818,10.368 -5.455,13.983c-3.636,3.615 -9.726,5.422 -18.268,5.422l-120.692,0c-8.543,0 -14.632,-1.807 -18.268,-5.422c-3.637,-3.615 -5.455,-8.339 -5.455,-14.174c0,-5.707 1.818,-10.368 5.455,-13.983c3.636,-3.614 9.725,-5.422 18.268,-5.422l42.597,0l0,-94.743l-28.571,-0c-8.427,-0 -14.488,-1.808 -18.182,-5.423c-3.694,-3.614 -5.541,-8.339 -5.541,-14.173c-0,-5.707 1.818,-10.369 5.454,-13.983c3.637,-3.615 9.726,-5.422 18.269,-5.422l64.069,-0Z" style="fill:#fff;fill-rule:nonzero;"/><path d="M170.008,1962.71l-0,8.214c4.045,-3.809 8.505,-6.666 13.38,-8.571c4.876,-1.904 10.167,-2.857 15.873,-2.857c13.146,0 23.547,4.484 31.203,13.452c6.067,7.142 9.101,16.506 9.101,28.092l0,45.353c4.695,0 8.162,1.131 10.401,3.393c2.239,2.262 3.359,5.218 3.359,8.868c-0,3.571 -1.138,6.488 -3.413,8.75c-2.275,2.261 -6.085,3.392 -11.43,3.392l-20.044,0c-5.345,0 -9.155,-1.131 -11.43,-3.392c-2.276,-2.262 -3.413,-5.218 -3.413,-8.869c-0,-3.571 1.119,-6.487 3.358,-8.749c2.239,-2.262 5.707,-3.393 10.401,-3.393l0,-46.067c0,-5.317 -1.3,-9.205 -3.9,-11.666c-3.395,-3.174 -8.487,-4.761 -15.277,-4.761c-5.128,-0 -9.624,1.091 -13.489,3.273c-3.864,2.183 -8.757,6.805 -14.68,13.868l-0,45.353c5.706,0 9.39,0.596 11.051,1.786c3.539,2.381 5.309,5.873 5.309,10.475c-0,3.571 -1.138,6.488 -3.413,8.75c-2.275,2.261 -6.085,3.392 -11.43,3.392l-25.245,0c-5.345,0 -9.155,-1.131 -11.43,-3.392c-2.275,-2.262 -3.413,-5.218 -3.413,-8.869c0,-4.444 1.734,-7.896 5.201,-10.356c1.733,-1.19 5.453,-1.786 11.159,-1.786l0,-59.28c-4.695,-0 -8.162,-1.151 -10.401,-3.452c-2.239,-2.302 -3.359,-5.238 -3.359,-8.809c0,-3.571 1.138,-6.487 3.413,-8.749c2.275,-2.262 6.086,-3.393 11.431,-3.393l21.127,0Z" style="fill:#fff;fill-rule:nonzero;"/><path d="M320.174,1987.11l-0,48.924c-0,5.238 0.975,8.69 2.925,10.356c3.034,2.619 8.451,3.929 16.252,3.929c11.34,-0 21.813,-2.659 31.42,-7.976c3.683,-2.063 6.573,-3.095 8.667,-3.095c2.89,0 5.4,1.191 7.53,3.571c2.131,2.381 3.196,5.278 3.196,8.69c0,3.174 -1.155,5.912 -3.467,8.214c-3.539,3.729 -10.527,7.162 -20.964,10.296c-10.438,3.135 -19.232,4.702 -26.382,4.702c-13.796,0 -24.143,-3.273 -31.041,-9.82c-6.898,-6.547 -10.347,-14.582 -10.347,-24.105l0,-53.686l-8.018,-0c-5.345,-0 -9.155,-1.131 -11.43,-3.393c-2.275,-2.261 -3.413,-5.217 -3.413,-8.868c0,-3.571 1.138,-6.487 3.413,-8.749c2.275,-2.262 6.085,-3.393 11.43,-3.393l8.018,0l0,-22.022c0,-5.872 1.029,-10.058 3.088,-12.558c2.058,-2.5 4.749,-3.75 8.072,-3.75c3.25,0 5.904,1.25 7.963,3.75c2.058,2.5 3.088,6.686 3.088,12.558l-0,22.022l41.062,0c5.345,0 9.156,1.131 11.431,3.393c2.275,2.262 3.413,5.218 3.413,8.868c-0,3.571 -1.138,6.488 -3.413,8.749c-2.275,2.262 -6.086,3.393 -11.431,3.393l-41.062,-0Z" style="fill:#fff;fill-rule:nonzero;"/><path d="M514.544,2029.13l-91.118,0c2.312,6.349 6.411,11.467 12.297,15.356c5.887,3.888 13.851,5.833 23.89,5.833c8.235,-0 19.178,-1.945 32.829,-5.833c5.634,-1.587 9.534,-2.381 11.701,-2.381c2.962,0 5.454,1.151 7.476,3.452c2.022,2.302 3.034,5.198 3.034,8.69c-0,3.174 -1.084,5.872 -3.251,8.094c-2.889,2.937 -9.931,5.734 -21.127,8.393c-11.196,2.658 -21.958,3.987 -32.287,3.987c-17.768,0 -31.979,-5.515 -42.633,-16.546c-10.654,-11.031 -15.981,-24.601 -15.981,-40.711c-0,-17.141 5.76,-31.088 17.281,-41.841c11.52,-10.753 24.793,-16.13 39.816,-16.13c9.029,0 17.318,1.746 24.866,5.238c7.548,3.492 13.164,7.261 16.847,11.308c5.201,5.873 9.498,13.134 12.893,21.784c2.312,6.032 3.467,13.015 3.467,20.951l0,10.356Zm-24.594,-24.403c-3.395,-6.983 -7.837,-12.201 -13.326,-15.653c-5.49,-3.452 -12.027,-5.178 -19.611,-5.178c-7.512,-0 -14.012,1.726 -19.502,5.178c-5.489,3.452 -9.968,8.67 -13.435,15.653l65.874,0Z" style="fill:#fff;fill-rule:nonzero;"/><path d="M587.352,1962.71l0,15.237c9.318,-7.38 16.667,-12.3 22.048,-14.761c5.381,-2.46 10.419,-3.69 15.114,-3.69c7.223,0 14.23,2.937 21.019,8.809c4.623,3.968 6.934,8.015 6.934,12.142c0,3.492 -1.101,6.448 -3.304,8.868c-2.203,2.421 -4.858,3.631 -7.964,3.631c-2.744,-0 -5.634,-1.508 -8.667,-4.524c-3.034,-3.015 -5.742,-4.523 -8.126,-4.523c-3.106,-0 -7.747,2.143 -13.922,6.428c-6.176,4.285 -13.887,10.713 -23.132,19.284l0,36.782l31.637,0c5.345,0 9.155,1.131 11.43,3.393c2.275,2.262 3.413,5.218 3.413,8.868c-0,3.571 -1.138,6.488 -3.413,8.75c-2.275,2.261 -6.085,3.392 -11.43,3.392l-67.066,0c-5.345,0 -9.155,-1.131 -11.43,-3.392c-2.275,-2.262 -3.413,-5.218 -3.413,-8.869c0,-3.571 1.138,-6.487 3.413,-8.749c2.275,-2.262 6.085,-3.393 11.43,-3.393l13.218,0l0,-59.28l-8.017,-0c-5.345,-0 -9.155,-1.131 -11.431,-3.393c-2.275,-2.261 -3.412,-5.217 -3.412,-8.868c-0,-3.571 1.137,-6.487 3.412,-8.749c2.276,-2.262 6.086,-3.393 11.431,-3.393l30.228,0Z" style="fill:#fff;fill-rule:nonzero;"/><path d="M702.631,1962.71l-0,8.214c4.045,-3.809 8.505,-6.666 13.381,-8.571c4.875,-1.904 10.166,-2.857 15.872,-2.857c13.146,0 23.547,4.484 31.203,13.452c6.068,7.142 9.101,16.506 9.101,28.092l0,45.353c4.695,0 8.162,1.131 10.401,3.393c2.24,2.262 3.359,5.218 3.359,8.868c0,3.571 -1.138,6.488 -3.413,8.75c-2.275,2.261 -6.085,3.392 -11.43,3.392l-20.044,0c-5.345,0 -9.155,-1.131 -11.43,-3.392c-2.276,-2.262 -3.413,-5.218 -3.413,-8.869c-0,-3.571 1.119,-6.487 3.359,-8.749c2.239,-2.262 5.706,-3.393 10.401,-3.393l-0,-46.067c-0,-5.317 -1.301,-9.205 -3.901,-11.666c-3.395,-3.174 -8.487,-4.761 -15.276,-4.761c-5.129,-0 -9.625,1.091 -13.489,3.273c-3.865,2.183 -8.758,6.805 -14.681,13.868l-0,45.353c5.706,0 9.39,0.596 11.051,1.786c3.539,2.381 5.309,5.873 5.309,10.475c0,3.571 -1.138,6.488 -3.413,8.75c-2.275,2.261 -6.085,3.392 -11.43,3.392l-25.245,0c-5.345,0 -9.155,-1.131 -11.43,-3.392c-2.275,-2.262 -3.413,-5.218 -3.413,-8.869c0,-4.444 1.734,-7.896 5.201,-10.356c1.733,-1.19 5.453,-1.786 11.159,-1.786l0,-59.28c-4.695,-0 -8.162,-1.151 -10.401,-3.452c-2.239,-2.302 -3.359,-5.238 -3.359,-8.809c0,-3.571 1.138,-6.487 3.413,-8.749c2.276,-2.262 6.086,-3.393 11.431,-3.393l21.127,0Z" style="fill:#fff;fill-rule:nonzero;"/><path d="M878.258,2070.8l-0,-5.714c-5.562,3.254 -11.701,5.694 -18.419,7.321c-6.717,1.627 -12.821,2.44 -18.31,2.44c-11.918,0 -21.597,-3.472 -29.036,-10.415c-7.44,-6.944 -11.16,-14.622 -11.16,-23.034c0,-10.237 4.749,-19.74 14.247,-28.509c9.499,-8.77 22.626,-13.154 39.384,-13.154c6.717,-0 14.482,0.793 23.294,2.381l-0,-5.833c-0,-3.651 -1.427,-6.627 -4.28,-8.928c-2.853,-2.301 -8.288,-3.452 -16.306,-3.452c-6.573,-0 -15.096,1.428 -25.569,4.285c-3.9,1.032 -6.934,1.548 -9.101,1.548c-2.961,-0 -5.471,-1.171 -7.53,-3.512c-2.058,-2.341 -3.088,-5.337 -3.088,-8.987c0,-2.063 0.361,-3.849 1.084,-5.357c0.722,-1.508 1.733,-2.718 3.033,-3.63c1.3,-0.913 4.009,-2.004 8.126,-3.274c5.49,-1.666 11.088,-2.996 16.794,-3.988c5.706,-0.992 10.87,-1.488 15.493,-1.488c13.796,0 24.504,3.274 32.124,9.821c7.62,6.547 11.431,15.495 11.431,26.843l-0,50.233l3.792,0c5.345,0 9.155,1.131 11.43,3.393c2.275,2.262 3.413,5.218 3.413,8.868c-0,3.571 -1.138,6.488 -3.413,8.75c-2.275,2.261 -6.085,3.392 -11.43,3.392l-26.003,0Zm-0,-43.687c-8.884,-1.904 -17.082,-2.856 -24.594,-2.856c-9.029,-0 -16.794,2.42 -23.295,7.261c-4.044,3.095 -6.067,6.229 -6.067,9.404c0,2.301 0.975,4.166 2.925,5.595c3.612,2.618 8.56,3.928 14.844,3.928c5.345,-0 11.394,-1.151 18.147,-3.452c6.754,-2.302 12.767,-5.436 18.04,-9.404l-0,-10.476Z" style="fill:#fff;fill-rule:nonzero;"/><path d="M985.953,1987.11l-0,48.924c-0,5.238 0.975,8.69 2.925,10.356c3.034,2.619 8.451,3.929 16.252,3.929c11.34,-0 21.813,-2.659 31.42,-7.976c3.683,-2.063 6.573,-3.095 8.667,-3.095c2.889,0 5.399,1.191 7.53,3.571c2.131,2.381 3.196,5.278 3.196,8.69c0,3.174 -1.155,5.912 -3.467,8.214c-3.539,3.729 -10.527,7.162 -20.964,10.296c-10.438,3.135 -19.232,4.702 -26.382,4.702c-13.796,0 -24.143,-3.273 -31.041,-9.82c-6.898,-6.547 -10.347,-14.582 -10.347,-24.105l-0,-53.686l-8.018,-0c-5.345,-0 -9.155,-1.131 -11.43,-3.393c-2.275,-2.261 -3.413,-5.217 -3.413,-8.868c0,-3.571 1.138,-6.487 3.413,-8.749c2.275,-2.262 6.085,-3.393 11.43,-3.393l8.018,0l-0,-22.022c-0,-5.872 1.029,-10.058 3.088,-12.558c2.058,-2.5 4.749,-3.75 8.071,-3.75c3.251,0 5.905,1.25 7.964,3.75c2.058,2.5 3.088,6.686 3.088,12.558l-0,22.022l41.062,0c5.345,0 9.155,1.131 11.431,3.393c2.275,2.262 3.413,5.218 3.413,8.868c-0,3.571 -1.138,6.488 -3.413,8.749c-2.276,2.262 -6.086,3.393 -11.431,3.393l-41.062,-0Z" style="fill:#fff;fill-rule:nonzero;"/><path d="M1132.54,1916.4l0,25.831l-26.436,-0l0,-25.831l26.436,-0Zm3.034,46.305l-0,83.683l26.653,0c5.345,0 9.155,1.131 11.43,3.393c2.275,2.262 3.413,5.218 3.413,8.868c-0,3.571 -1.138,6.488 -3.413,8.75c-2.275,2.261 -6.085,3.392 -11.43,3.392l-75.517,0c-5.345,0 -9.155,-1.131 -11.43,-3.392c-2.275,-2.262 -3.413,-5.218 -3.413,-8.869c0,-3.571 1.138,-6.487 3.413,-8.749c2.275,-2.262 6.085,-3.393 11.43,-3.393l26.653,0l0,-59.28l-17.877,-0c-5.273,-0 -9.065,-1.131 -11.376,-3.393c-2.311,-2.261 -3.467,-5.217 -3.467,-8.868c0,-3.571 1.138,-6.487 3.413,-8.749c2.275,-2.262 6.085,-3.393 11.43,-3.393l40.088,0Z" style="fill:#fff;fill-rule:nonzero;"/><path d="M1315.43,2018.78c0,9.364 -2.365,18.431 -7.096,27.2c-4.731,8.769 -11.774,15.752 -21.128,20.95c-9.353,5.198 -19.122,7.797 -29.307,7.797c-10.112,0 -19.791,-2.559 -29.036,-7.678c-9.246,-5.118 -16.288,-12.082 -21.127,-20.891c-4.84,-8.808 -7.26,-18.014 -7.26,-27.616c0,-9.761 2.456,-19.344 7.368,-28.748c4.911,-9.404 11.972,-16.804 21.181,-22.2c9.21,-5.397 18.834,-8.095 28.874,-8.095c10.112,0 19.845,2.758 29.199,8.273c9.354,5.516 16.414,12.936 21.182,22.26c4.767,9.325 7.15,18.907 7.15,28.748Zm-22.21,0.119c-0,-7.857 -2.565,-15.078 -7.693,-21.665c-7.006,-8.888 -16.216,-13.332 -27.628,-13.332c-10.04,-0 -18.418,3.531 -25.136,10.594c-6.717,7.063 -10.076,15.237 -10.076,24.522c0,7.618 3.395,14.741 10.185,21.367c6.789,6.627 15.132,9.94 25.027,9.94c9.968,-0 18.347,-3.313 25.136,-9.94c6.79,-6.626 10.185,-13.788 10.185,-21.486Z" style="fill:#fff;fill-rule:nonzero;"/><path d="M1368.41,1962.71l-0,8.214c4.045,-3.809 8.505,-6.666 13.38,-8.571c4.876,-1.904 10.167,-2.857 15.873,-2.857c13.146,0 23.547,4.484 31.203,13.452c6.068,7.142 9.101,16.506 9.101,28.092l0,45.353c4.695,0 8.162,1.131 10.401,3.393c2.24,2.262 3.359,5.218 3.359,8.868c0,3.571 -1.138,6.488 -3.413,8.75c-2.275,2.261 -6.085,3.392 -11.43,3.392l-20.044,0c-5.345,0 -9.155,-1.131 -11.43,-3.392c-2.276,-2.262 -3.413,-5.218 -3.413,-8.869c-0,-3.571 1.119,-6.487 3.358,-8.749c2.24,-2.262 5.707,-3.393 10.402,-3.393l-0,-46.067c-0,-5.317 -1.301,-9.205 -3.901,-11.666c-3.395,-3.174 -8.487,-4.761 -15.276,-4.761c-5.129,-0 -9.625,1.091 -13.489,3.273c-3.865,2.183 -8.758,6.805 -14.681,13.868l-0,45.353c5.706,0 9.39,0.596 11.051,1.786c3.539,2.381 5.309,5.873 5.309,10.475c-0,3.571 -1.138,6.488 -3.413,8.75c-2.275,2.261 -6.085,3.392 -11.43,3.392l-25.245,0c-5.345,0 -9.155,-1.131 -11.43,-3.392c-2.275,-2.262 -3.413,-5.218 -3.413,-8.869c0,-4.444 1.734,-7.896 5.201,-10.356c1.733,-1.19 5.453,-1.786 11.159,-1.786l0,-59.28c-4.695,-0 -8.162,-1.151 -10.401,-3.452c-2.239,-2.302 -3.359,-5.238 -3.359,-8.809c0,-3.571 1.138,-6.487 3.413,-8.749c2.276,-2.262 6.086,-3.393 11.431,-3.393l21.127,0Z" style="fill:#fff;fill-rule:nonzero;"/><path d="M1544.04,2070.8l-0,-5.714c-5.562,3.254 -11.701,5.694 -18.419,7.321c-6.717,1.627 -12.821,2.44 -18.31,2.44c-11.918,0 -21.597,-3.472 -29.036,-10.415c-7.44,-6.944 -11.16,-14.622 -11.16,-23.034c0,-10.237 4.749,-19.74 14.247,-28.509c9.499,-8.77 22.626,-13.154 39.384,-13.154c6.717,-0 14.482,0.793 23.294,2.381l-0,-5.833c-0,-3.651 -1.427,-6.627 -4.28,-8.928c-2.853,-2.301 -8.288,-3.452 -16.306,-3.452c-6.573,-0 -15.096,1.428 -25.569,4.285c-3.9,1.032 -6.934,1.548 -9.101,1.548c-2.961,-0 -5.471,-1.171 -7.53,-3.512c-2.059,-2.341 -3.088,-5.337 -3.088,-8.987c0,-2.063 0.361,-3.849 1.084,-5.357c0.722,-1.508 1.733,-2.718 3.033,-3.63c1.3,-0.913 4.009,-2.004 8.126,-3.274c5.49,-1.666 11.087,-2.996 16.794,-3.988c5.706,-0.992 10.87,-1.488 15.493,-1.488c13.796,0 24.504,3.274 32.124,9.821c7.62,6.547 11.431,15.495 11.431,26.843l-0,50.233l3.792,0c5.345,0 9.155,1.131 11.43,3.393c2.275,2.262 3.413,5.218 3.413,8.868c-0,3.571 -1.138,6.488 -3.413,8.75c-2.275,2.261 -6.085,3.392 -11.43,3.392l-26.003,0Zm-0,-43.687c-8.884,-1.904 -17.083,-2.856 -24.594,-2.856c-9.029,-0 -16.794,2.42 -23.295,7.261c-4.044,3.095 -6.067,6.229 -6.067,9.404c0,2.301 0.975,4.166 2.925,5.595c3.612,2.618 8.56,3.928 14.844,3.928c5.345,-0 11.394,-1.151 18.147,-3.452c6.754,-2.302 12.767,-5.436 18.04,-9.404l-0,-10.476Z" style="fill:#fff;fill-rule:nonzero;"/><path d="M1668.31,1916.4l0,129.988l26.653,0c5.345,0 9.155,1.131 11.431,3.393c2.275,2.262 3.412,5.218 3.412,8.868c0,3.571 -1.137,6.488 -3.412,8.75c-2.276,2.261 -6.086,3.392 -11.431,3.392l-75.516,0c-5.345,0 -9.155,-1.131 -11.431,-3.392c-2.275,-2.262 -3.412,-5.218 -3.412,-8.869c-0,-3.571 1.137,-6.487 3.412,-8.749c2.276,-2.262 6.086,-3.393 11.431,-3.393l26.653,0l-0,-105.586l-17.877,0c-5.273,0 -9.065,-1.13 -11.376,-3.392c-2.312,-2.262 -3.467,-5.218 -3.467,-8.868c-0,-3.571 1.137,-6.488 3.412,-8.75c2.276,-2.261 6.086,-3.392 11.431,-3.392l40.087,-0Z" style="fill:#fff;fill-rule:nonzero;"/></g></g></svg>