<?xml version="1.0" encoding="UTF-8" standalone="no"?><!DOCTYPE svg PUBLIC "-//W3C//DTD SVG 1.1//EN" "http://www.w3.org/Graphics/SVG/1.1/DTD/svg11.dtd"><svg width="100%" height="100%" viewBox="0 0 284 304" version="1.1" xmlns="http://www.w3.org/2000/svg" xmlns:xlink="http://www.w3.org/1999/xlink" xml:space="preserve" xmlns:serif="http://www.serif.com/" style="fill-rule:evenodd;clip-rule:evenodd;stroke-linecap:round;stroke-linejoin:round;stroke-miterlimit:1.5;"><g id="ai_nobk"><path d="M270.833,97.459c0,-29.834 -24.221,-54.054 -54.054,-54.054l-127.435,-0c-29.834,-0 -54.054,24.22 -54.054,54.054l-0,108.108c-0,29.834 24.22,54.055 54.054,54.055l127.435,-0c29.833,-0 54.054,-24.221 54.054,-54.055l0,-108.108Z" style="fill:none;stroke:#312e51;stroke-width:26.2px;"/><path d="M75.656,221.684l69.357,-163.837c-0,-0 97.014,236.656 97.014,236.656c2.151,5.247 8.157,7.761 13.404,5.61c5.247,-2.151 7.76,-8.157 5.609,-13.404l-106.368,-259.475c-1.574,-3.838 -5.3,-6.353 -9.448,-6.377c-4.148,-0.024 -7.903,2.449 -9.52,6.269l-78.971,186.548c-2.21,5.222 0.234,11.256 5.456,13.467c5.222,2.21 11.256,-0.235 13.467,-5.457Z" style="stroke:#fff;stroke-width:5.14px;stroke-linecap:butt;stroke-miterlimit:2;"/><path d="M66.497,99.645l78.516,117.14l118.945,-205.226" style="fill:none;stroke:#30aa2e;stroke-width:23.12px;"/><g><path d="M12.576,244.49l0,5.355l-5.479,-0l-0,-5.355l5.479,0Zm0.629,9.598l0,17.346l5.525,0c1.108,0 1.897,0.235 2.369,0.704c0.472,0.468 0.707,1.081 0.707,1.838c0,0.74 -0.235,1.344 -0.707,1.813c-0.472,0.469 -1.261,0.703 -2.369,0.703l-15.653,0c-1.108,0 -1.898,-0.234 -2.37,-0.703c-0.471,-0.469 -0.707,-1.081 -0.707,-1.838c-0,-0.74 0.236,-1.345 0.707,-1.813c0.472,-0.469 1.262,-0.704 2.37,-0.704l5.524,0l0,-12.287l-3.705,-0c-1.093,-0 -1.879,-0.235 -2.358,-0.704c-0.479,-0.468 -0.719,-1.081 -0.719,-1.838c0,-0.74 0.236,-1.344 0.707,-1.813c0.472,-0.469 1.262,-0.704 2.37,-0.704l8.309,0Z" style="fill:#fff;fill-rule:nonzero;"/><path d="M22.049,254.551l-0,1.065c0.525,-0.494 1.103,-0.864 1.735,-1.111c0.633,-0.247 1.319,-0.371 2.059,-0.371c1.705,0 3.054,0.582 4.047,1.745c0.787,0.926 1.18,2.141 1.18,3.643l0,5.882c0.609,0 1.059,0.147 1.349,0.44c0.29,0.294 0.436,0.677 0.436,1.151c-0,0.463 -0.148,0.841 -0.443,1.134c-0.295,0.294 -0.789,0.44 -1.482,0.44l-2.6,0c-0.693,0 -1.187,-0.146 -1.482,-0.44c-0.295,-0.293 -0.443,-0.676 -0.443,-1.15c-0,-0.463 0.145,-0.841 0.436,-1.135c0.29,-0.293 0.74,-0.44 1.349,-0.44l-0,-5.974c-0,-0.69 -0.169,-1.194 -0.506,-1.513c-0.441,-0.412 -1.101,-0.618 -1.982,-0.618c-0.665,0 -1.248,0.142 -1.749,0.425c-0.501,0.283 -1.136,0.882 -1.904,1.798l-0,5.882c0.74,0 1.218,0.078 1.433,0.232c0.459,0.309 0.689,0.762 0.689,1.359c-0,0.463 -0.148,0.841 -0.443,1.134c-0.295,0.294 -0.789,0.44 -1.482,0.44l-3.274,0c-0.694,0 -1.188,-0.146 -1.483,-0.44c-0.295,-0.293 -0.442,-0.676 -0.442,-1.15c-0,-0.576 0.224,-1.024 0.674,-1.343c0.225,-0.154 0.707,-0.232 1.447,-0.232l0,-7.688c-0.609,0 -1.058,-0.149 -1.349,-0.448c-0.29,-0.298 -0.435,-0.679 -0.435,-1.142c-0,-0.463 0.147,-0.841 0.442,-1.135c0.296,-0.293 0.79,-0.44 1.483,-0.44l2.74,0Z" style="fill:#fff;fill-rule:nonzero;"/><path d="M41.525,257.716l-0,6.345c-0,0.68 0.126,1.127 0.379,1.343c0.393,0.34 1.096,0.51 2.108,0.51c1.47,-0 2.829,-0.345 4.075,-1.035c0.477,-0.267 0.852,-0.401 1.124,-0.401c0.375,0 0.7,0.154 0.976,0.463c0.277,0.309 0.415,0.685 0.415,1.127c-0,0.412 -0.15,0.767 -0.45,1.065c-0.459,0.484 -1.365,0.929 -2.719,1.336c-1.353,0.406 -2.494,0.61 -3.421,0.61c-1.79,-0 -3.131,-0.425 -4.026,-1.274c-0.895,-0.849 -1.342,-1.891 -1.342,-3.126l-0,-6.963l-1.04,0c-0.693,0 -1.187,-0.147 -1.482,-0.44c-0.295,-0.293 -0.443,-0.677 -0.443,-1.15c0,-0.463 0.148,-0.841 0.443,-1.135c0.295,-0.293 0.789,-0.44 1.482,-0.44l1.04,0l-0,-2.856c-0,-0.762 0.133,-1.304 0.4,-1.629c0.267,-0.324 0.616,-0.486 1.047,-0.486c0.422,0 0.766,0.162 1.033,0.486c0.267,0.325 0.401,0.867 0.401,1.629l-0,2.856l5.325,0c0.693,0 1.187,0.147 1.483,0.44c0.295,0.294 0.442,0.677 0.442,1.15c0,0.464 -0.147,0.842 -0.442,1.135c-0.296,0.293 -0.79,0.44 -1.483,0.44l-5.325,0Z" style="fill:#fff;fill-rule:nonzero;"/><path d="M66.733,263.166l-11.817,-0c0.3,0.823 0.831,1.487 1.595,1.991c0.763,0.505 1.796,0.757 3.098,0.757c1.068,-0 2.487,-0.252 4.258,-0.757c0.73,-0.205 1.236,-0.308 1.517,-0.308c0.384,-0 0.708,0.149 0.97,0.447c0.262,0.299 0.393,0.674 0.393,1.127c0,0.412 -0.14,0.762 -0.421,1.05c-0.375,0.381 -1.288,0.744 -2.74,1.089c-1.452,0.344 -2.848,0.517 -4.188,0.517c-2.304,-0 -4.147,-0.716 -5.529,-2.146c-1.382,-1.431 -2.073,-3.191 -2.073,-5.28c0,-2.223 0.747,-4.032 2.242,-5.427c1.494,-1.394 3.215,-2.092 5.164,-2.092c1.17,0 2.245,0.227 3.224,0.68c0.979,0.453 1.708,0.941 2.185,1.466c0.675,0.762 1.232,1.704 1.673,2.826c0.299,0.782 0.449,1.687 0.449,2.717l0,1.343Zm-3.19,-3.165c-0.44,-0.906 -1.016,-1.582 -1.728,-2.03c-0.712,-0.448 -1.56,-0.672 -2.543,-0.672c-0.974,0 -1.818,0.224 -2.53,0.672c-0.711,0.448 -1.292,1.124 -1.742,2.03l8.543,-0Z" style="fill:#fff;fill-rule:nonzero;"/><path d="M76.176,254.551l-0,1.976c1.208,-0.957 2.162,-1.595 2.859,-1.914c0.698,-0.319 1.352,-0.479 1.961,-0.479c0.936,0 1.845,0.381 2.726,1.143c0.599,0.514 0.899,1.039 0.899,1.575c-0,0.452 -0.143,0.836 -0.429,1.15c-0.285,0.314 -0.63,0.471 -1.032,0.471c-0.356,-0 -0.731,-0.196 -1.125,-0.587c-0.393,-0.391 -0.744,-0.587 -1.053,-0.587c-0.403,0 -1.005,0.278 -1.806,0.834c-0.801,0.556 -1.801,1.389 -3,2.501l-0,4.77l4.103,0c0.693,0 1.187,0.147 1.482,0.44c0.296,0.294 0.443,0.677 0.443,1.151c0,0.463 -0.147,0.841 -0.443,1.134c-0.295,0.294 -0.789,0.44 -1.482,0.44l-8.698,0c-0.693,0 -1.187,-0.146 -1.482,-0.44c-0.296,-0.293 -0.443,-0.676 -0.443,-1.15c-0,-0.463 0.147,-0.841 0.443,-1.135c0.295,-0.293 0.789,-0.44 1.482,-0.44l1.714,0l0,-7.688l-1.04,0c-0.693,0 -1.187,-0.147 -1.482,-0.44c-0.295,-0.293 -0.443,-0.677 -0.443,-1.15c0,-0.463 0.148,-0.841 0.443,-1.135c0.295,-0.293 0.789,-0.44 1.482,-0.44l3.921,0Z" style="fill:#fff;fill-rule:nonzero;"/><path d="M91.127,254.551l-0,1.065c0.524,-0.494 1.103,-0.864 1.735,-1.111c0.633,-0.247 1.319,-0.371 2.059,-0.371c1.705,0 3.054,0.582 4.047,1.745c0.787,0.926 1.18,2.141 1.18,3.643l0,5.882c0.609,0 1.059,0.147 1.349,0.44c0.29,0.294 0.436,0.677 0.436,1.151c-0,0.463 -0.148,0.841 -0.443,1.134c-0.295,0.294 -0.789,0.44 -1.482,0.44l-2.6,0c-0.693,0 -1.187,-0.146 -1.482,-0.44c-0.296,-0.293 -0.443,-0.676 -0.443,-1.15c-0,-0.463 0.145,-0.841 0.435,-1.135c0.291,-0.293 0.741,-0.44 1.349,-0.44l0,-5.974c0,-0.69 -0.168,-1.194 -0.505,-1.513c-0.441,-0.412 -1.101,-0.618 -1.982,-0.618c-0.665,0 -1.248,0.142 -1.749,0.425c-0.501,0.283 -1.136,0.882 -1.904,1.798l-0,5.882c0.74,0 1.218,0.078 1.433,0.232c0.459,0.309 0.689,0.762 0.689,1.359c-0,0.463 -0.148,0.841 -0.443,1.134c-0.295,0.294 -0.789,0.44 -1.482,0.44l-3.274,0c-0.694,0 -1.188,-0.146 -1.483,-0.44c-0.295,-0.293 -0.443,-0.676 -0.443,-1.15c0,-0.576 0.225,-1.024 0.675,-1.343c0.225,-0.154 0.707,-0.232 1.447,-0.232l0,-7.688c-0.609,0 -1.058,-0.149 -1.349,-0.448c-0.29,-0.298 -0.435,-0.679 -0.435,-1.142c-0,-0.463 0.147,-0.841 0.442,-1.135c0.295,-0.293 0.79,-0.44 1.483,-0.44l2.74,0Z" style="fill:#fff;fill-rule:nonzero;"/><path d="M113.905,268.569l-0,-0.741c-0.722,0.422 -1.518,0.739 -2.389,0.95c-0.871,0.211 -1.663,0.316 -2.375,0.316c-1.546,0 -2.801,-0.45 -3.766,-1.351c-0.965,-0.9 -1.447,-1.896 -1.447,-2.987c-0,-1.328 0.616,-2.56 1.848,-3.698c1.232,-1.137 2.934,-1.705 5.107,-1.705c0.872,-0 1.879,0.102 3.022,0.308l-0,-0.756c-0,-0.474 -0.185,-0.86 -0.555,-1.158c-0.37,-0.299 -1.075,-0.448 -2.115,-0.448c-0.853,0 -1.958,0.185 -3.316,0.556c-0.506,0.134 -0.9,0.201 -1.181,0.201c-0.384,-0 -0.709,-0.152 -0.976,-0.456c-0.267,-0.303 -0.401,-0.692 -0.401,-1.165c0,-0.268 0.047,-0.499 0.141,-0.695c0.093,-0.196 0.225,-0.353 0.393,-0.471c0.169,-0.118 0.52,-0.26 1.054,-0.424c0.712,-0.217 1.438,-0.389 2.178,-0.518c0.74,-0.128 1.41,-0.193 2.009,-0.193c1.79,0 3.178,0.425 4.167,1.274c0.988,0.849 1.482,2.01 1.482,3.481l0,6.515l0.492,0c0.693,0 1.187,0.147 1.482,0.44c0.296,0.294 0.443,0.677 0.443,1.151c0,0.463 -0.147,0.841 -0.443,1.134c-0.295,0.294 -0.789,0.44 -1.482,0.44l-3.372,0Zm-0,-5.666c-1.153,-0.247 -2.216,-0.37 -3.19,-0.37c-1.171,-0 -2.178,0.314 -3.021,0.942c-0.525,0.401 -0.787,0.808 -0.787,1.219c-0,0.299 0.126,0.541 0.379,0.726c0.469,0.339 1.11,0.509 1.925,0.509c0.694,0 1.478,-0.149 2.354,-0.447c0.876,-0.299 1.656,-0.705 2.34,-1.22l-0,-1.359Z" style="fill:#fff;fill-rule:nonzero;"/><path d="M127.872,257.716l-0,6.345c-0,0.68 0.126,1.127 0.379,1.343c0.394,0.34 1.096,0.51 2.108,0.51c1.471,-0 2.829,-0.345 4.075,-1.035c0.478,-0.267 0.853,-0.401 1.124,-0.401c0.375,0 0.7,0.154 0.977,0.463c0.276,0.309 0.414,0.685 0.414,1.127c0,0.412 -0.15,0.767 -0.449,1.065c-0.459,0.484 -1.366,0.929 -2.719,1.336c-1.354,0.406 -2.495,0.61 -3.422,0.61c-1.789,-0 -3.131,-0.425 -4.026,-1.274c-0.894,-0.849 -1.342,-1.891 -1.342,-3.126l0,-6.963l-1.039,0c-0.694,0 -1.188,-0.147 -1.483,-0.44c-0.295,-0.293 -0.443,-0.677 -0.443,-1.15c0,-0.463 0.148,-0.841 0.443,-1.135c0.295,-0.293 0.789,-0.44 1.483,-0.44l1.039,0l0,-2.856c0,-0.762 0.134,-1.304 0.401,-1.629c0.267,-0.324 0.616,-0.486 1.047,-0.486c0.421,0 0.765,0.162 1.032,0.486c0.267,0.325 0.401,0.867 0.401,1.629l-0,2.856l5.326,0c0.693,0 1.187,0.147 1.482,0.44c0.295,0.294 0.443,0.677 0.443,1.15c-0,0.464 -0.148,0.842 -0.443,1.135c-0.295,0.293 -0.789,0.44 -1.482,0.44l-5.326,0Z" style="fill:#fff;fill-rule:nonzero;"/><path d="M146.884,248.546l-0,3.35l-3.429,-0l0,-3.35l3.429,-0Zm0.393,6.005l0,10.853l3.457,0c0.693,0 1.187,0.147 1.482,0.44c0.295,0.294 0.443,0.677 0.443,1.151c0,0.463 -0.148,0.841 -0.443,1.134c-0.295,0.294 -0.789,0.44 -1.482,0.44l-9.794,0c-0.693,0 -1.187,-0.146 -1.482,-0.44c-0.296,-0.293 -0.443,-0.676 -0.443,-1.15c-0,-0.463 0.147,-0.841 0.443,-1.135c0.295,-0.293 0.789,-0.44 1.482,-0.44l3.457,0l-0,-7.688l-2.319,0c-0.684,0 -1.176,-0.147 -1.475,-0.44c-0.3,-0.293 -0.45,-0.677 -0.45,-1.15c0,-0.463 0.148,-0.841 0.443,-1.135c0.295,-0.293 0.789,-0.44 1.482,-0.44l5.199,0Z" style="fill:#fff;fill-rule:nonzero;"/><path d="M170.603,261.823c-0,1.214 -0.307,2.39 -0.92,3.527c-0.614,1.138 -1.527,2.043 -2.74,2.718c-1.214,0.674 -2.481,1.011 -3.801,1.011c-1.312,-0 -2.567,-0.332 -3.766,-0.996c-1.199,-0.664 -2.113,-1.567 -2.74,-2.709c-0.628,-1.143 -0.942,-2.337 -0.942,-3.582c0,-1.266 0.319,-2.509 0.956,-3.729c0.637,-1.219 1.552,-2.179 2.747,-2.879c1.194,-0.7 2.442,-1.05 3.745,-1.05c1.311,0 2.573,0.358 3.786,1.073c1.214,0.716 2.129,1.678 2.748,2.887c0.618,1.21 0.927,2.452 0.927,3.729Zm-2.881,0.015c0,-1.019 -0.332,-1.955 -0.997,-2.81c-0.909,-1.152 -2.103,-1.729 -3.583,-1.729c-1.303,0 -2.389,0.458 -3.26,1.374c-0.872,0.916 -1.307,1.976 -1.307,3.181c-0,0.988 0.44,1.911 1.321,2.771c0.88,0.859 1.962,1.289 3.246,1.289c1.292,-0 2.379,-0.43 3.26,-1.289c0.88,-0.86 1.32,-1.789 1.32,-2.787Z" style="fill:#fff;fill-rule:nonzero;"/><path d="M177.474,254.551l0,1.065c0.525,-0.494 1.103,-0.864 1.736,-1.111c0.632,-0.247 1.318,-0.371 2.058,-0.371c1.705,0 3.054,0.582 4.047,1.745c0.787,0.926 1.18,2.141 1.18,3.643l0,5.882c0.609,0 1.059,0.147 1.349,0.44c0.291,0.294 0.436,0.677 0.436,1.151c-0,0.463 -0.148,0.841 -0.443,1.134c-0.295,0.294 -0.789,0.44 -1.482,0.44l-2.6,0c-0.693,0 -1.187,-0.146 -1.482,-0.44c-0.295,-0.293 -0.443,-0.676 -0.443,-1.15c0,-0.463 0.145,-0.841 0.436,-1.135c0.29,-0.293 0.74,-0.44 1.349,-0.44l-0,-5.974c-0,-0.69 -0.169,-1.194 -0.506,-1.513c-0.44,-0.412 -1.101,-0.618 -1.981,-0.618c-0.665,0 -1.249,0.142 -1.75,0.425c-0.501,0.283 -1.136,0.882 -1.904,1.798l0,5.882c0.74,0 1.218,0.078 1.434,0.232c0.459,0.309 0.688,0.762 0.688,1.359c0,0.463 -0.147,0.841 -0.443,1.134c-0.295,0.294 -0.789,0.44 -1.482,0.44l-3.274,0c-0.693,0 -1.187,-0.146 -1.483,-0.44c-0.295,-0.293 -0.442,-0.676 -0.442,-1.15c-0,-0.576 0.225,-1.024 0.674,-1.343c0.225,-0.154 0.708,-0.232 1.448,-0.232l-0,-7.688c-0.609,0 -1.059,-0.149 -1.349,-0.448c-0.291,-0.298 -0.436,-0.679 -0.436,-1.142c0,-0.463 0.148,-0.841 0.443,-1.135c0.295,-0.293 0.789,-0.44 1.482,-0.44l2.74,0Z" style="fill:#fff;fill-rule:nonzero;"/><path d="M200.252,268.569l-0,-0.741c-0.721,0.422 -1.518,0.739 -2.389,0.95c-0.871,0.211 -1.663,0.316 -2.375,0.316c-1.545,0 -2.8,-0.45 -3.765,-1.351c-0.965,-0.9 -1.448,-1.896 -1.448,-2.987c0,-1.328 0.616,-2.56 1.848,-3.698c1.232,-1.137 2.935,-1.705 5.108,-1.705c0.871,-0 1.878,0.102 3.021,0.308l-0,-0.756c-0,-0.474 -0.185,-0.86 -0.555,-1.158c-0.37,-0.299 -1.075,-0.448 -2.115,-0.448c-0.852,0 -1.958,0.185 -3.316,0.556c-0.506,0.134 -0.899,0.201 -1.18,0.201c-0.384,-0 -0.71,-0.152 -0.977,-0.456c-0.267,-0.303 -0.4,-0.692 -0.4,-1.165c-0,-0.268 0.046,-0.499 0.14,-0.695c0.094,-0.196 0.225,-0.353 0.394,-0.471c0.168,-0.118 0.519,-0.26 1.053,-0.424c0.712,-0.217 1.438,-0.389 2.178,-0.518c0.74,-0.128 1.41,-0.193 2.01,-0.193c1.789,0 3.178,0.425 4.166,1.274c0.988,0.849 1.483,2.01 1.483,3.481l-0,6.515l0.491,0c0.694,0 1.188,0.147 1.483,0.44c0.295,0.294 0.442,0.677 0.442,1.151c0,0.463 -0.147,0.841 -0.442,1.134c-0.295,0.294 -0.789,0.44 -1.483,0.44l-3.372,0Zm-0,-5.666c-1.152,-0.247 -2.215,-0.37 -3.19,-0.37c-1.171,-0 -2.178,0.314 -3.021,0.942c-0.524,0.401 -0.787,0.808 -0.787,1.219c0,0.299 0.127,0.541 0.38,0.726c0.468,0.339 1.11,0.509 1.925,0.509c0.693,0 1.477,-0.149 2.353,-0.447c0.876,-0.299 1.656,-0.705 2.34,-1.22l-0,-1.359Z" style="fill:#fff;fill-rule:nonzero;"/><path d="M216.369,248.546l0,16.858l3.457,0c0.693,0 1.187,0.147 1.482,0.44c0.295,0.294 0.443,0.677 0.443,1.151c0,0.463 -0.148,0.841 -0.443,1.134c-0.295,0.294 -0.789,0.44 -1.482,0.44l-9.794,0c-0.693,0 -1.187,-0.146 -1.483,-0.44c-0.295,-0.293 -0.442,-0.676 -0.442,-1.15c-0,-0.463 0.147,-0.841 0.442,-1.135c0.296,-0.293 0.79,-0.44 1.483,-0.44l3.457,0l-0,-13.693l-2.319,-0c-0.684,-0 -1.176,-0.147 -1.475,-0.44c-0.3,-0.294 -0.45,-0.677 -0.45,-1.151c0,-0.463 0.148,-0.841 0.443,-1.134c0.295,-0.294 0.789,-0.44 1.482,-0.44l5.199,-0Z" style="fill:#fff;fill-rule:nonzero;"/></g></g></svg>